<svg xmlns="http://www.w3.org/2000/svg" xmlns:xlink="http://www.w3.org/1999/xlink" version="1.0" x="0px" y="0px" width="86px" height="100px" viewBox="0 0 86 100" enable-background="new 0 0 86 100" xml:space="preserve"><style>.style0{fill:	#FFFFFF;}.style1{fill:	#C9C9C9;}.style2{fill:	#33BECF;}</style><g><polygon points="78.5,98.5 78.5,20.6 59.4,1.5 1.5,1.5 1.5,98.5" class="style0"/><path d="M60 0H0v100h80V20L60 0z M77 21.242V97H3V3h55.758l0.312 0.312V20.93h17.618L77 21.242z" class="style1"/></g><rect x="44" y="60" width="42" height="24" class="style2"/><g><path d="M57.755 65.439v2.341h-5.383v3.062h4.123v2.25h-4.123v3.124h5.383v2.341h-8.444V65.439H57.755z" class="style0"/><path d="M62.703 74.172v4.385H59.66V65.439h4.628c3.691 0 5.3 1.9 5.3 4.285c0 2.62-1.647 4.447-5.275 4.4 H62.703z M62.703 71.877h1.585c1.584 0 2.232-0.793 2.232-2.152c0-1.197-0.702-2.007-2.232-2.007h-1.585V71.877z" class="style0"/><path d="M78.635 68.104c-0.18 0.288-0.352 0.433-0.666 0.433c-0.55 0-1.225-0.847-2.557-0.847 c-1.144 0-1.692 0.522-1.692 1.351c0 2.1 5.9 0.9 5.9 5.312c0 2.422-1.711 4.349-4.699 4.3 c-1.63 0-3.476-0.703-4.502-1.729l0.9-1.423c0.135-0.216 0.387-0.36 0.666-0.36c0.711 0 1.4 1.1 3 1.1 c1.107 0 1.746-0.468 1.746-1.521c0-2.467-5.834-0.675-5.834-5.573c0-1.98 1.621-3.897 4.502-3.897 c1.611 0 3.1 0.5 4 1.396L78.635 68.104z" class="style0"/></g></svg>