<?xml version="1.0" encoding="utf-8"?>
<!-- Generator: Adobe Illustrator 15.1.0, SVG Export Plug-In . SVG Version: 6.00 Build 0)  -->
<!DOCTYPE svg PUBLIC "-//W3C//DTD SVG 1.0//EN" "http://www.w3.org/TR/2001/REC-SVG-20010904/DTD/svg10.dtd">
<svg version="1.0" id="Layer_1" xmlns="http://www.w3.org/2000/svg" xmlns:xlink="http://www.w3.org/1999/xlink" x="0px" y="0px"
	 width="86px" height="100px" viewBox="0 0 86 100" enable-background="new 0 0 86 100" xml:space="preserve">
<g>
	<polygon fill="#FFFFFF" points="78.5,98.5 78.5,20.621 59.379,1.5 1.5,1.5 1.5,98.5 	"/>
	<path fill="#C9C9C9" d="M60,0H0v100h80V20L60,0z M77,21.242V97H3V3h55.758l0.312,0.312V20.93h17.618L77,21.242z"/>
</g>
<g>
	<rect x="44" y="60" fill="#33BECF" width="42" height="24"/>
	<g>
		<path fill="#FFFFFF" d="M60.329,75.964v-1.989h-1.296c-0.388,0-0.612-0.226-0.612-0.54V71.76h4.663v5.536
			c-1.341,0.981-2.881,1.405-5.023,1.405c-3.835,0-6.698-2.863-6.698-6.707c0-3.917,2.701-6.698,6.933-6.698
			c2.196,0,3.826,0.756,4.88,1.765l-0.883,1.341c-0.171,0.252-0.405,0.405-0.684,0.405c-0.181,0-0.369-0.062-0.559-0.18
			c-0.963-0.576-1.639-0.819-2.863-0.819c-2.269,0-3.709,1.675-3.709,4.187c0,2.772,1.621,4.366,3.817,4.366
			C59.132,76.36,59.753,76.207,60.329,75.964z"/>
		<path fill="#FFFFFF" d="M68.445,78.557h-3.061V65.439h3.061V78.557z"/>
		<path fill="#FFFFFF" d="M79.499,65.439v2.341h-5.384v3.322h4.483v2.35h-4.483v5.104h-3.061V65.439H79.499z"/>
	</g>
</g>
</svg>
