<svg xmlns="http://www.w3.org/2000/svg" xmlns:xlink="http://www.w3.org/1999/xlink" version="1.0" x="0px" y="0px" width="86px" height="100px" viewBox="0 0 86 100" enable-background="new 0 0 86 100" xml:space="preserve"><style>.style0{fill:	#FFFFFF;}.style1{fill:	#C9C9C9;}.style2{fill:	#33BECF;}</style><g><polygon points="78.5,98.5 78.5,20.6 59.4,1.5 1.5,1.5 1.5,98.5" class="style0"/><path d="M60 0H0v100h80V20L60 0z M77 21.242V97H3V3h55.758l0.312 0.312V20.93h17.618L77 21.242z" class="style1"/></g><rect x="44" y="60" width="42" height="24" class="style2"/><g><path d="M54.662 73.803c0 2.917-1.45 4.898-4.466 4.898c-0.684 0-1.332-0.063-2.053-0.234l0.162-1.773 c0.027-0.315 0.252-0.522 0.648-0.522c0.207 0 0.5 0.1 0.9 0.099c1.18 0 1.747-0.603 1.747-2.403v-8.427h3.043V73.803z" class="style0"/><path d="M59.862 74.172v4.385H56.82V65.439h4.627c3.691 0 5.3 1.9 5.3 4.285c0 2.62-1.648 4.447-5.276 4.4 H59.862z M59.862 71.877h1.585c1.585 0 2.233-0.793 2.233-2.152c0-1.197-0.703-2.007-2.233-2.007h-1.585V71.877z" class="style0"/><path d="M76.515 75.964v-1.989h-1.297c-0.387 0-0.611-0.226-0.611-0.54V71.76h4.663v5.536 c-1.342 0.981-2.881 1.405-5.024 1.405c-3.834 0-6.697-2.863-6.697-6.707c0-3.917 2.701-6.698 6.932-6.698 c2.197 0 3.8 0.8 4.9 1.765l-0.883 1.341c-0.171 0.252-0.404 0.405-0.684 0.405c-0.181 0-0.369-0.062-0.559-0.18 c-0.963-0.576-1.639-0.819-2.862-0.819c-2.27 0-3.709 1.675-3.709 4.187c0 2.8 1.6 4.4 3.8 4.4 C75.317 76.4 75.9 76.2 76.5 75.964z" class="style0"/></g></svg>