<svg xmlns="http://www.w3.org/2000/svg" xmlns:xlink="http://www.w3.org/1999/xlink" version="1.0" x="0px" y="0px" width="86px" height="100px" viewBox="0 0 86 100" enable-background="new 0 0 86 100" xml:space="preserve"><style>.style0{fill:	#FFFFFF;}.style1{fill:	#C9C9C9;}.style2{fill:	#33BECF;}</style><g><polygon points="78.5,98.5 78.5,20.6 59.4,1.5 1.5,1.5 1.5,98.5" class="style0"/><path d="M60 0H0v100h80V20L60 0z M77 21.242V97H3V3h55.758l0.312 0.312V20.93h17.618L77 21.242z" class="style1"/></g><g><rect x="40" y="60" width="46" height="24" class="style2"/><g><path d="M48.897 74.172v4.385h-3.043V65.439h4.627c3.691 0 5.3 1.9 5.3 4.3 c0 2.62-1.647 4.447-5.276 4.447H48.897z M48.897 71.877h1.584c1.585 0 2.233-0.793 2.233-2.152c0-1.197-0.702-2.007-2.233-2.007 h-1.584V71.877z" class="style0"/><path d="M62.614 78.557h-5.096V65.439h5.096c4.077 0 6.8 2.8 6.8 6.6 C69.42 75.8 66.7 78.6 62.6 78.557z M62.614 67.78h-2.035v8.436h2.035c2.322 0 3.69-1.603 3.69-4.222 C66.305 69.4 64.9 67.8 62.6 67.78z" class="style0"/><path d="M79.499 65.439v2.341h-5.384v3.322h4.483v2.35h-4.483v5.104h-3.061V65.439H79.499z" class="style0"/></g></g></svg>