<svg xmlns="http://www.w3.org/2000/svg" xmlns:xlink="http://www.w3.org/1999/xlink" version="1.0" x="0px" y="0px" width="86px" height="100px" viewBox="0 0 86 100" enable-background="new 0 0 86 100" xml:space="preserve"><style>.style0{fill:	#FFFFFF;}.style1{fill:	#C9C9C9;}.style2{fill:	#33BECF;}</style><g><g><polygon points="78.5,98.5 78.5,20.6 59.4,1.5 1.5,1.5 1.5,98.5" class="style0"/><path d="M60 0H0v100h80V20L60 0z M77 21.242V97H3V3h55.758l0.312 0.312V20.93h17.618L77 21.242z" class="style1"/></g><g><rect x="38" y="60" width="48" height="24" class="style2"/><g><path d="M46.122 74.172v4.385H43.08V65.439h4.628c3.689 0 5.3 1.9 5.3 4.3 c0 2.62-1.648 4.447-5.275 4.447H46.122z M46.122 71.877h1.586c1.584 0 2.232-0.793 2.232-2.152c0-1.197-0.703-2.007-2.232-2.007 h-1.586V71.877z" class="style0"/><path d="M57.21 65.908l6.23 7.877c-0.045-0.504-0.072-0.981-0.072-1.404v-6.941h2.682v13.117h-1.584 c-0.467 0-0.766-0.117-1.062-0.504l-6.184-7.814c0.035 0.5 0.1 0.9 0.1 1.287v7.031h-2.684V65.439h1.604 C56.724 65.4 56.9 65.5 57.2 65.908z" class="style0"/><path d="M76.472 75.964v-1.989h-1.297c-0.387 0-0.611-0.226-0.611-0.54V71.76h4.664v5.536 c-1.342 0.981-2.881 1.405-5.023 1.405c-3.836 0-6.699-2.863-6.699-6.707c0-3.917 2.701-6.698 6.932-6.698 c2.197 0 3.8 0.8 4.9 1.765l-0.883 1.341c-0.172 0.252-0.404 0.405-0.684 0.405c-0.182 0-0.369-0.062-0.559-0.18 c-0.963-0.576-1.639-0.819-2.863-0.819c-2.268 0-3.709 1.675-3.709 4.187c0 2.8 1.6 4.4 3.8 4.4 C75.274 76.4 75.9 76.2 76.5 75.964z" class="style0"/></g></g></g></svg>