<?xml version="1.0" encoding="utf-8"?>
<!-- Generator: Adobe Illustrator 15.1.0, SVG Export Plug-In . SVG Version: 6.00 Build 0)  -->
<!DOCTYPE svg PUBLIC "-//W3C//DTD SVG 1.0//EN" "http://www.w3.org/TR/2001/REC-SVG-20010904/DTD/svg10.dtd">
<svg version="1.0" id="Layer_1" xmlns="http://www.w3.org/2000/svg" xmlns:xlink="http://www.w3.org/1999/xlink" x="0px" y="0px"
	 width="86px" height="100px" viewBox="0 0 86 100" enable-background="new 0 0 86 100" xml:space="preserve">
<g>
	<polygon fill="#FFFFFF" points="78.5,98.5 78.5,20.621 59.379,1.5 1.5,1.5 1.5,98.5 	"/>
	<path fill="#C9C9C9" d="M60,0H0v100h80V20L60,0z M77,21.242V97H3V3h55.758l0.312,0.312V20.93h17.618L77,21.242z"/>
</g>
<g>
	<rect x="46" y="60" fill="#33BECF" width="40" height="24"/>
	<g>
		<path fill="#FFFFFF" d="M63.677,65.439v2.413h-3.69v10.704h-3.043V67.853h-3.69v-2.413H63.677z"/>
		<path fill="#FFFFFF" d="M68.445,78.557h-3.061V65.439h3.061V78.557z"/>
		<path fill="#FFFFFF" d="M79.499,65.439v2.341h-5.384v3.322h4.483v2.35h-4.483v5.104h-3.061V65.439H79.499z"/>
	</g>
</g>
</svg>
